<svg xmlns="http://www.w3.org/2000/svg" xml:space="preserve" style="enable-background:new 0 0 890.7 647.7" version="1.0" viewBox="0 0 890.7 647.7"><path d="M383 238c-.8 0-1.7.1-2.5.3-12.5 2.9-24.8 6.6-36.9 10.9-9.1 3.1-17.7 7.3-25.8 12.5-3.2 2.2-6.4 4.5-9.3 7.1-.8.5-1.4 1.3-1.7 2.2 1 5.8 6.5 9 11.3 11.4 7.9 3.6 16.7 5.7 25.4 4.7-2.6-2.2-6.2-2.5-8.9-4.5-1.1-.8-1.1-2.3-1.4-3.5-2.7.5-5.2 1.5-7.8 2.2 2.4-1.5 5.1-2.6 7.6-3.9 13.5-5.8 28.1-8.3 42.6-10.3 10.1-1.1 20.4-1.5 30.2-4.5-.8-2.2-1.2-5.4-4-5.8-6.1-3.2-9-9.7-12.5-15.3-1.4-2.1-3.7-3.5-6.3-3.5zM508 238c-2-.1-3.9.6-5.2 2-2 2-3.1 4.7-4.6 7-2.1 3.8-5 7.1-8.6 9.5-.9.6-2.4.5-2.9 1.6-.8 1.4-1.4 2.9-1.7 4.5 9.8 2.9 20 3.2 30.1 4.5 16 2 32.1 4.9 46.7 12.1 1.2.7 2.5 1.3 3.7 2-2.6-.7-5.2-1.5-7.9-2.3-.4 1.3-.5 3-1.8 3.8-2.7 1.8-6.2 2.1-8.6 4.4 4.1.5 8.3.3 12.4-.6 8-1.5 16.1-4.5 21.9-10.4h.1c1.2-1.7 2-3.8 2.2-5.9-9.3-8.6-20.6-15-32.4-19.5-13.3-5-27-9.2-40.8-12.4-.8-.2-1.7-.3-2.6-.3zM445.3 194c-.6 0-1.2.5-1.2 1.1-2.3 7.6-4.3 15.4-8.7 22.1-1.6 2.5-3.8 4.5-6.4 5.9-6.1 3.5-13 5.5-19.7 7.5-1 .3-2 .9-2.7 1.7.7.7 1.6 1.2 2.6 1.6 7.2 2.3 14.7 4.3 21.1 8.4 3.8 2.4 6.1 6.4 7.9 10.4 2.2 5.6 4.2 11.2 5.8 17 .5 1.6 2.5.7 2.5-.7 1.5-5.5 3.3-10.9 5.4-16.2l-.1-.4.4-.1c1.1-2.2 2.3-4.2 3.7-6.2 1.9-2.6 4.6-4.2 7.4-5.7l3-1.4c4.8-2 9.8-3.5 14.7-5 1-.4 2.6-.7 2.3-2.1-.9-.7-2-1.2-3.1-1.5-6.5-2-13.1-4-19.1-7.4-2.6-1.4-4.7-3.5-6.3-6-4.2-6.7-6.3-14.4-8.5-21.8.2-.8-.3-1.2-1-1.2zM153.1 243.7c-4.6 0-9.2.4-13.7 1.3-15.6 3.1-29.8 12.5-39.5 25-5.4 7-9.5 14.9-12.2 23.3-4.3 13.4-4.9 27.7-1.7 41.5.8 3.6 1.9 7 3.1 10.5h.1c1.9 5.1 4.3 9.9 7.3 14.4.4.4.7 1.4 1.4 1.4l-.3.1c4 5.8 8.8 11 14.3 15.4h.2c5.1 4.2 10.9 7.5 17.1 9.9 8.8 3.4 18.2 4.9 27.6 4.3 15.2-.6 30.8-3.5 43.9-11.5 4-2.2 7.7-5 10.8-8.3v-9.7c0-5.1.1-10.2 0-15.2.2-3.3-.3-6.8 1-9.9l-.1.1c1.3-2.6 3.5-4.7 6.1-6 2.4-1.3 5.4-1.3 7.5-3.1 0-.4-.1-1.1-.1-1.4-1.8-.2-3.5-.2-5.3-.1h-64.4c-1.3-.3-2.9.9-1.9 2.2 1.5 1.5 3.8 1.7 5.8 2.3 5.8 1.2 11.4 3.9 15.1 8.7 1.2 2.2 2.3 4.5 2.3 7.1.1 7.6-.1 15.1 0 22.7-.3 3.9-.3 7.9-2 11.5-3 3.3-8 1.9-12 2.1-6.9-1-13.3-4.1-18.5-8.7-4.7-4.3-8.6-9.4-11.6-15-2.7-5.1-4.8-10.5-6.2-16.1-.8-3.2-1.4-6.5-2-9.8-.7-5.9-1-11.8-.8-17.7.4-7.4 1.7-14.8 3.7-21.9h.1c2.3-7.8 6-15.2 10.8-21.7 3.1-3.9 6.7-7.4 10.8-10.2 6.9-4.8 15.5-6.5 23.8-4.6 8.8 2 16.1 8 21.5 15 3.5 4.7 6.4 9.9 8.5 15.4 1 2.5 1.9 5.1 2.6 7.7.5 1.6.7 3.4 2 4.6 2.2-4 1.7-8.8 2.2-13.2.2-4.4.4-8.9.4-13.3-.2-4.5.1-9.1-1.4-13.4-8 .2-15.6-2.7-22.6-6.5-10.3-6.1-21.9-9.1-33.7-9.2zM220.5 290h-1.1c2.9 2.8 6.7 4.8 8.6 8.4 2.8 5.2 2.8 11.3 2.7 17.1.1 4.9 0 9.8 0 14.7V346c2.7-2.7 5.6-5.1 8.7-7.4 4.3-3.1 8.9-5.7 13.6-8v-14.4c.1-2.8-.1-5.5.1-8.2.4-2.6 2.8-4.5 5.4-4.3h16.1c4.5.3 8.7 2 12 5 4 3.9 7 8.8 8.7 14.1l.7-.8c.6-4.5-.1-9.1-.8-13.5-.9-4.2-2.1-8.4-3.6-12.5-15.6 0-31.2.2-46.7-1.6-7.1-1-14.2-2.5-21.2-4-1-.2-2.1-.4-3.2-.4z"/><path d="M280.7 327.6c-1.6 0-3.2.2-4.7.3-15.6 2.1-30.4 8.4-42.6 18.4-4.1 3.6-7.8 7.6-11 12-2.7 3.8-5 7.8-6.9 12 4.5-3 9.2-5.7 14-8.1.4-.2.8-.4 1.2-.5v2.3c.2 3.9-.4 7.9-1.9 11.5l.2.4-.5.2c-2.8 5.5-7.7 9.4-12.2 13.4 3.4.1 6.7-1 10.1-1.6 8.9-1.8 18-2.7 27.1-2.5h42.1c1.7-4.6 3.1-9.2 4.1-14 .7-3.7 1-7.5 1-11.2-.1-1 0-2.4-1.1-2.7-1.7 5.1-4.6 9.7-8.3 13.5-3.9 3.9-9.2 6.2-14.7 6.4h-18.7c-1.5.1-2.8-.9-3.9-1.8-.6-1.1-1-2.4-1-3.7v-18.5l3-.8c2.2-.5 4.3-.9 6.5-1.4 11.3-1.9 22.7-2.9 34.1-2.9.7 0 1.3-.2 2-.3-.7-1.9-1.9-3.6-3.6-4.8-2.1-1.2-4.5-1.7-6.5-3-3.1-2.7-2.6-7.3-1.9-10.9-1.8-1.3-3.8-1.8-5.9-1.7zM381.4 295.9c-6.6 0-13.2 0-19.8.1-1 2 1.8 2.4 3 3.2 4.7 2.1 6 7.8 5.5 12.5v39.7l-3-3.8c-3.8-5-7.8-9.9-11.6-14.9-2.4-3-4.8-6.1-7.1-9.1l-6.6-8.4-15-19.2c-8 0-15.9-.1-23.9.1v1.5c2 1.6 4.8 2 6.2 4.2 3.1 3.9 2.1 9.1 2.3 13.7 0 4.1-.1 8.2 0 12.3v37.5c-.1 3.9.5 7.8-.7 11.6-.7 1.5-1.6 2.9-2.8 4-1.4 1.2-3.1 1.6-4.6 2.6-.7.4-.4 1.3-.4 1.9 13.2-.1 26.4.1 39.6-.1.4-2.1-1.9-2.5-3.3-3.3-2.5-1.1-4.1-3.6-5-6.1-.8-4.4-.2-8.8-.5-13.2v-38.9l-.1-1.3.3-.2c1.3 1.9 2.8 3.7 4.2 5.5 1.6 2.1 3.2 4.2 4.9 6.2 3 3.9 6 7.7 9 11.6 2.5 3.3 5.1 6.5 7.6 9.8 3.9 4.9 7.6 9.9 11.6 14.7 3.2 4.3 6.6 8.5 9.9 12.8 1.9 2.4 3.9 4.6 6.1 6.6 3.4 3 7.6 4.9 12.2 5.4-.6-2.2-2.2-3.9-3.1-5.9l-.4-.2.2-.3c-.8-2.8-2-5.5-2.5-8.4-.4-2.5-.8-5.1-.9-7.6-.3-5.1-.1-10.2-.2-15.3v-17c.1-5.3 0-26.8 0-30.2-.2-4.1 1.3-8.8 5.3-10.7 1.4-.8 3.8-1.2 3.5-3.3-6.7-.1-13.3-.1-19.9-.1zM442.1 276.8c-1.8 0-3.7.2-5.5.5-9.2 1.2-17.5 6.1-22.9 13.5-1.9 2.8-3.4 6-4.2 9.3v.1c-1.6 6.4-.8 13.2 1.4 19.3h.1c1.6 4.2 3.9 8 7 11.2h.1c3.8 3.8 8.4 6.8 12.9 9.8 9.2 6.6 18.8 12.6 27.8 19.5 2.5 2.3 4.2 5.4 4.8 8.7.1 2.9-.3 5.9-1.4 8.6-1.5 3.3-4.1 5.9-7.4 7.4-3.8 1.9-8 1.7-12.1 1.2-1.9-.3-3.8-.7-5.7-1.2-3.7-1.2-7.2-2.9-10.4-5-1.1-.9-2.2-1.7-3.3-2.6l-1.5-1.3c-1-1-2-2-2.9-3.1-2-2.3-3.9-4.8-5.5-7.4-2.7-3.9-4.4-8.5-7.3-12.2-1.1 4-1.1 8.1-1.1 12.2 0 1.2 0 2.5.1 3.7.2 3.7.7 7.4 1.5 11 1.1 4.5 2.9 9.1 6.1 12.5 4.8-2.9 10.9-2.5 16-.7 8.4 2.6 17.3 3.4 26 2.4 4-.4 8-1.4 11.8-2.8 5.2-2.1 9.7-5.7 13-10.3 2.9-4.3 4.7-9.3 5.3-14.4h.1c.3-2.8.5-5.7.5-8.5-.1-6.1-1.8-12-4.9-17.2-2-3.1-4.4-5.9-7.1-8.4-6.5-5.4-13.6-9.9-20.6-14.8-6.3-4.3-12.7-8.5-18.8-13-3.7-3-6.3-7.5-5.4-12.4.5-2.7 2-5.2 4.3-6.9 4.1-2.8 9.3-2.9 14.1-2.4 6.1.7 11.7 3.7 15.6 8.4h.1c2.5 3 3.9 6.8 6.2 9.9 4.5 3.2 9.1 6.5 14.5 8 .1-2.7-1-5.2-1.9-7.7-1.4-3.6-2.9-7.3-4.5-10.9-2-4.1-4.3-8.2-6.9-12-3.6 1.8-7.7 1-11.5.1-5.5-1.2-10.9-2-16.5-2.1zM528.3 295.9c-13.2.1-26.4-.1-39.6.1-.1 2.4 2.8 2.5 4.3 3.7 3.9 2.4 4.8 7.5 4.5 11.7 0 3.5-.1 7.1.1 10.6l.1.4c-.2 1.4-.2 2.8-.1 4.2V343c-.1 2.2 0 4.4.2 6.6v-.4c.1.3.2.9.3 1.1-.1.1-.2.4-.4.5-.2 4.4 0 8.9-.1 13.3v9.7c-.3 3.3-1.1 6.4-2.4 9.4l.1.4-.4.1c-2.4 4.3-5.9 7.7-9.4 11 10.9.3 20.3-6.5 30.8-8.5 4-.7 8.1-1.1 12.1-1.1.7-2-1.8-2.5-3.1-3.3-3.5-1.5-5.3-5.4-5.5-9 0-3.2.1-6.4 0-9.6s.1-6.3 0-9.4c0-2.8 2.3-5.2 5.1-5.2 9.1 0 18.1-.1 27.2.1.7.4 1.5.8 2.3 1 1.1 1.5 1.8 3.3 2 5.1l-.4.4c.1.3.2.8.3 1.1-.3 1.5-.3 3-.2 4.6 0 3.9-.1 7.8 0 11.8-.2 3.7-1.9 7.6-5.4 9.2-1.4.8-3.8 1.2-3.4 3.3 13.2 0 26.4.1 39.6 0 .8-1.9-1.7-2.4-2.9-3.1-3.5-1.4-5.3-5.2-5.7-8.7 0-3.1.1-6.2 0-9.3.1-4.7.1-9.5 0-14.2.2-5.4.1-10.7 0-16.1.2-7.3 0-14.5.1-21.8 0-2.9-.2-6 1.3-8.7 1.1-2.1 2.9-3.8 5.2-4.6 1-.5 3-1.2 2-2.7-13.2-.1-26.4-.1-39.6 0-.3 2.1 2.1 2.5 3.5 3.3 3.4 1.6 4.9 5.3 5.3 8.8-.1 6.7 0 13.5-.1 20.2-.1 1.6-.8 3.1-2 4.2-1 .5-2.2.9-3.3.9h-25.2c-2.1.1-4.2-1-5.3-2.8-.7-3.8-.2-7.6-.4-11.4V312c-.4-4.6.5-10.3 5-12.6 1.4-.9 4.3-1.2 3.5-3.5z"/><path d="M603 327.6c-1.1 0-2.2.1-3.3.2-1.1.2-2.2.6-3.1 1.2.6 3.1 1.1 6.6-.6 9.4-.7 1.2-2 1.8-2.9 2.8-3.3.3-6.2 2.2-7.9 5-.5.5-.8 1.9.3 1.8 9.2 0 18.3.6 27.4 1.8v-21c-3.3-.7-6.6-1.1-9.9-1.2zM641.6 340.4v16.8l.2-.4c9 3.6 17.7 8 25.8 13.3-2.9-6.4-6.7-12.3-11.4-17.6-4.2-4.6-9.1-8.7-14.6-12.1z"/><path d="M614.3 295.9c-4.4 0-8.8.1-13.3.2 0 .3.1.9.1 1.2 3.5 1.9 7.8 1.8 10.8 4.6 2.9 2.2 3.8 6 3.4 9.5.1 9.7 0 19.3 0 29 0 5.5-.1 11 0 16.5-.1 2.2 0 4.5 0 6.7 0 3.5.1 6.9-.1 10.4-1.3 4.8-6 7.5-10.6 8.4-1.5.5-4 .5-3.9 2.6 1.6.2 3.2.2 4.8.1h1.7c14.6.2 29.2 0 43.9.1.9 0 2.9.3 2.5-1.3-1.8-1.4-4.2-1.5-6.3-2.3-3-.9-5.7-2.9-7.3-5.6l-.5-.1.2-.5c-.7-2.8-.5-5.6-.5-8.5v-53.1c.2-3.1-.6-6.5 1.2-9.2 2-3.4 5.8-5.1 9.5-5.9 1.5-.5 3.9-.5 4-2.6-5.8-.5-11.7-.1-17.5-.2-7.4.1-14.8 0-22.1 0zM806.6 251.8c-5.5.6-10.9 2.3-16.4 3.4-14.9 3.3-29.9 6.6-44.8 10-.9 0-2.4 1.2-1.2 1.9 3.5 1.3 7.6 1.6 10.3 4.6 3.6 3.3 4 8.5 3.8 13.1-.1 4.3-.1 8.6 0 13-.1 6.9-.1 13.7 0 20.6-.2 4.2 0 8.4 0 12.7-6.5-5.5-13-11-19.6-16.4-6.7-5.7-13.5-11.4-20.3-17L693.8 277c-8.8 1.3-17.5 2.6-26.3 3.9-1.4.4-4.2-.2-4 2 2.2 2 5.6 1.4 8.2 2.9 4.5 2 6.8 7 6.4 11.7-.1 6.6-.1 13.3 0 19.9 0 5.6-.1 11.2 0 16.9v29.1c.2 3.6 0 7.3-1.7 10.6-1.8 3.4-4.6 6.1-8.1 7.7-1.5.9-3.3 1.3-4.6 2.5-.6 1.6 1.5 1.4 2.4 1.4 3.9-.1 7.8.1 11.8-.1h.4c10.3.2 20.7 0 31 .1 5.6-.1 11.3.2 16.9-.2 1-1.2-.7-2-1.6-2.4-3.3-1.5-6.7-3.2-9-6.1-2.7-3.5-4-7.8-3.6-12.2V309.8c2.8 2.3 5.6 4.7 8.4 7 4.4 3.8 8.9 7.5 13.3 11.2 8.1 6.9 16.4 13.7 24.5 20.6v1.8c.1 5 .8 10 2.2 14.9.8 3 2 6 3.4 8.8 1.6 3.3 3.7 6.4 6.1 9.1 5 5.9 11.3 10.5 18.4 13.4 1.2.5 3.1 1 3.7-.6.5-6.4.2-12.9.2-19.4.2-7.2 0-14.4 0-21.5 0-7.8.2-15.6-.1-23.4.3-9.1.1-18.2.1-27.3.1-10.4 0-20.7.1-31.1.3-7.4 5.2-13.9 11.4-17.7 1.1-1.2 3.4-1.9 2.9-3.8zM254.1 414.3c-8.8.1-17.7 0-26.5.1.1 1.6 2.1 1.5 3.2 2.1 2.7.8 5.1 3.2 5 6.2v22.6c.1 3-2.3 5.5-5 6.3-1.2.5-3 .5-3.3 2.1 8.9.2 17.7 0 26.6.1 1.1-.1 2.5.4 3.2-.8-1.4-.7-2.8-1.2-4.3-1.7-2.5-.9-4.2-3.3-4.2-6V424c-.2-2 .4-4 1.7-5.5 1.8-2 4.6-2.1 6.8-3.5-.7-1.1-2-.7-3.2-.7zM309.2 414.2c-6.8.3-13.5 0-20.2.2l.2 1c2.8 1.1 5.9 2.7 6.2 6 .2 7.9.1 15.9.1 23.8-.1 2.9-2 5.4-4.8 6.2-1.3.5-3 .6-3.6 2 4.5.5 9.1.1 13.6.2 1.3-.1 2.9.4 3.9-.6-1.5-1.2-3.4-1.9-4.3-3.6-.8-1.7-1.2-3.6-1-5.5v-21c1.5 2.8 2.4 5.9 4.1 8.5l-.2.6.8 1.1c2.9 6.9 6.1 13.7 9.1 20.6 1.9-.9 2.9-2.8 3.8-4.7 3.8-8.5 7.6-16.9 11.4-25.4v20.8c0 2.2-.4 4.6-2 6.2-1 1-2.9 1.2-3.1 2.8 7.8.1 15.5 0 23.3.1 1.1-.2 2.6.4 3.3-.8-2-1.2-4.4-1.3-6.2-2.9-1.4-1.2-2.3-2.9-2.3-4.8v-22.6c-.1-2.7 1.5-5.1 3.9-6.1 1-.5 2.6-.7 2.8-2.1-6.6-.1-13.1 0-19.7-.1-3.2 7-6.3 14.1-9.5 21.2-3.4-7-6.4-14.2-9.6-21.1zM383.5 414.3c-.9-.1-1.8.1-2.6.5 1.1.8 2.3 1.4 3.5 1.9 2.2 1.1 3.5 3.4 3.5 5.9v22.6c.1 2.9-2.2 5.5-4.9 6.2-1.2.6-3.2.5-3.4 2.1 9.9.1 19.7.1 29.6 0-.1-1.5-1.7-1.5-2.8-2-2.6-.7-5.1-2.7-5.4-5.5-.2-2.6 0-5.3-.1-8 4.4 0 8.9.2 13-1.5 3.6-1.4 7.1-3.9 8.5-7.6 1.1-3.3.2-6.9-2.3-9.2-3.7-3.8-9.2-5.4-14.4-5.5h-21.3l-.9.1zm17.4 2.7c3.8.3 7.1 2.9 8.1 6.5 1 3.5-.1 7.2-2.8 9.6-.8.4-1.5.9-2.2 1.4-1 .3-2 .6-3 .7 0-6 0-12.1-.1-18.2zM473.9 413.3c.6 1.3 1.2 2.6 1.7 4-1.5 3.3-3 6.6-4.4 9.9-.3.6-.6 1.2-.9 1.9-2.8 6.1-5.4 12.3-8.2 18.4-.8 1.9-2.3 3.3-4.3 3.9-1.2.6-3 .5-3.4 2.1 4.8.2 9.6 0 14.4.1 1.1-.1 2.5.4 3.3-.8-1.9-1.3-5.3-1.1-5.8-3.8.1-3 2-5.6 3.1-8.4 5.5.1 11.1 0 16.7 0 1 2.4 2.2 4.6 2.9 7 .5 1.5-.3 3-1.8 3.5-1.3.7-3.4.5-3.8 2.3 8.8 0 17.5.1 26.3-.1-.4-1.6-2.2-1.5-3.4-2.1-2.1-.7-3.7-2.4-4.5-4.5l-15-33.6c-4.3.2-8.6.2-12.9.2zm3.8 8.6c2.2 5 4.4 10 6.6 14.9H471c2.2-4.9 4.4-9.9 6.7-14.9zM564.2 414.3c-4.5-.1-8.8 1.1-12.7 3.3-5.1 2.9-9.1 8.1-9.8 14-.4 3.3.1 6.6 1.4 9.7l.6.9c3.5 6.9 11.1 10.9 18.6 11.4 6.5.4 13.8-1.1 18.3-6.2 1.6-1.9 3.3-4.1 3.2-6.8-1.6 1.6-2.5 3.7-4.4 5-5.4 4.5-14.1 3.9-19.1-1-6.7-6.4-5.8-18.8 1.7-24.1 5-3.3 11.5-2.6 15.8 1.5 1.9 1.7 2.9 4.1 4.4 6.1.5-3.8.4-7.7-.4-11.5-1.5.1-3 .5-4.6.6-1.8-.4-3.4-1.2-5.2-1.7-2.5-.8-5.1-1.2-7.8-1.2zM618.7 414.3v11.9c.8.1 1.5 0 1.7-.9.8-1.8 1.5-3.9 3.4-5 3.1-2.2 7.1-1.4 10.6-1.5v26.5c.1 3-2.3 5.5-5.1 6.3-1.1.5-2.9.5-3.2 2 9.9.1 19.9.3 29.8-.1-1.3-2.1-4.5-1.6-6.2-3.4-3.8-3.1-1.7-8.4-2.4-12.6v-1.2c.3-5.8 0-11.7.1-17.5 3.8.1 8.3-.8 11.3 2.2 1.9 1.4 1.7 4.5 3.9 5.6.8-4 .2-8.2.3-12.2-14.6-.1-29.4-.1-44.2-.1z"/></svg>