<svg width="96" height="96" viewBox="0 0 96 96" fill="none" xmlns="http://www.w3.org/2000/svg">
  <rect x="15" y="36" width="66" height="42" rx="8" fill="#6EA66A"/>
  <path d="M15 43C15 30.8497 24.8497 21 37 21H59C71.1503 21 81 30.8497 81 43V46H15V43Z" fill="#8CC67A"/>
  <rect x="44" y="21" width="8" height="57" fill="#D3A85D"/>
  <rect x="15" y="46" width="66" height="6" fill="#5B8E58"/>
  <rect x="26" y="56" width="12" height="22" fill="#5A8C53"/>
  <rect x="58" y="56" width="12" height="22" fill="#5A8C53"/>
  <rect x="42" y="52" width="12" height="22" rx="2" fill="#B9914F"/>
  <circle cx="48" cy="62" r="3" fill="#3C2C1E"/>
  <path d="M46 65H50V70C50 71.1046 49.1046 72 48 72C46.8954 72 46 71.1046 46 70V65Z" fill="#3C2C1E"/>
</svg>
